<svg width="26" height="24" viewBox="0 0 26 24" fill="none" xmlns="http://www.w3.org/2000/svg">
<path fill-rule="evenodd" clip-rule="evenodd" d="M17.8139 0H7.35278C3.29038 0 0.583344 2.90388 0.583344 7.0718V16.9282C0.583344 21.1 3.28325 24 7.35278 24H17.8139C21.8834 24 24.5833 21.1 24.5833 16.9282V7.0718C24.5833 2.89998 21.8834 0 17.8139 0ZM7.35275 1.67443H17.8139C20.9309 1.67443 22.9089 3.79906 22.9089 7.07181V16.9282C22.9089 20.201 20.9309 22.3256 17.8139 22.3256H7.35275C4.23578 22.3256 2.25773 20.201 2.25773 16.9282V7.07181C2.25773 3.8034 4.24239 1.67443 7.35275 1.67443ZM13.4554 6.21472C13.4 5.80608 13.0497 5.49111 12.6259 5.49111C12.1635 5.49111 11.7887 5.86594 11.7887 6.32832V17.6504L11.7963 17.764C11.8517 18.1727 12.202 18.4876 12.6259 18.4876C13.0883 18.4876 13.4631 18.1128 13.4631 17.6504V6.32832L13.4554 6.21472ZM8.24616 9.87899C8.19073 9.47035 7.84044 9.15538 7.4166 9.15538C6.95422 9.15538 6.57939 9.53021 6.57939 9.99259V17.6504L6.58703 17.764C6.64247 18.1727 6.99275 18.4876 7.4166 18.4876C7.87898 18.4876 8.25381 18.1128 8.25381 17.6504V9.99259L8.24616 9.87899ZM17.7501 13.2021C18.174 13.2021 18.5242 13.517 18.5797 13.9257L18.5873 14.0393V17.6504C18.5873 18.1128 18.2125 18.4876 17.7501 18.4876C17.3263 18.4876 16.976 18.1727 16.9206 17.764L16.9129 17.6504V14.0393C16.9129 13.5769 17.2877 13.2021 17.7501 13.2021Z" fill="#808191"/>
</svg>
